ffmpeg version N-55863-g9f38fac053-static https://johnvansickle.com/ffmpeg/  Copyright (c) 2000-2021 the FFmpeg developers
  built with gcc 8 (Debian 8.3.0-6)
  configuration: --enable-gpl --enable-version3 --enable-static --disable-debug --disable-ffplay --disable-indev=sndio --disable-outdev=sndio --cc=gcc --enable-fontconfig --enable-frei0r --enable-gnutls --enable-gmp --enable-libgme --enable-gray --enable-libaom --enable-libfribidi --enable-libass --enable-libvmaf --enable-libfreetype --enable-libmp3lame --enable-libopencore-amrnb --enable-libopencore-amrwb --enable-libopenjpeg --enable-librubberband --enable-libsoxr --enable-libspeex --enable-libsrt --enable-libvorbis --enable-libopus --enable-libtheora --enable-libvidstab --enable-libvo-amrwbenc --enable-libvpx --enable-libwebp --enable-libx264 --enable-libx265 --enable-libxml2 --enable-libdav1d --enable-libxvid --enable-libzvbi --enable-libzimg
  libavutil      56. 64.100 / 56. 64.100
  libavcodec     58.119.100 / 58.119.100
  libavformat    58. 65.101 / 58. 65.101
  libavdevice    58. 11.103 / 58. 11.103
  libavfilter     7.100.100 /  7.100.100
  libswscale      5.  8.100 /  5.  8.100
  libswresample   3.  8.100 /  3.  8.100
  libpostproc    55.  8.100 / 55.  8.100
Input #0, mov,mp4,m4a,3gp,3g2,mj2, from '/home/yiaapc5/public_html/f_data/data_userfiles/user_uploads/3995073565/v/1612725239.mp4':
  Metadata:
    major_brand     : mp42
    minor_version   : 0
    compatible_brands: isommp42
    creation_time   : 2021-02-07T00:10:56.000000Z
  Duration: 00:49:51.96, start: 0.000000, bitrate: 2063 kb/s
    Stream #0:0(und): Video: h264 (Main) (avc1 / 0x31637661), yuv420p(tv, bt709), 1280x720 [SAR 1:1 DAR 16:9], 1931 kb/s, 25 fps, 25 tbr, 12800 tbn, 50 tbc (default)
    Metadata:
      creation_time   : 2021-02-07T00:10:56.000000Z
      handler_name    : ISO Media file produced by Google Inc. Created on: 02/06/2021.
      vendor_id       : [0][0][0][0]
    Stream #0:1(und): Audio: aac (LC) (mp4a / 0x6134706D), 44100 Hz, stereo, fltp, 128 kb/s (default)
    Metadata:
      creation_time   : 2021-02-07T00:10:56.000000Z
      handler_name    : ISO Media file produced by Google Inc. Created on: 02/06/2021.
      vendor_id       : [0][0][0][0]
Codec AVOption rc_eq (Set rate control equation. When computing the expression, besides the standard functions defined in the section 'Expression Evaluation', the following functions are available: bits2qp(bits), qp2bits(qp). Also the following constants are available: iTex pTex tex mv fCode iCount mcVar var isI isP isB avgQP qComp avgIITex avgPITex avgPPTex avgBPTex avgTex.) specified for output file #0 (/home/yiaapc5/public_html/f_data/data_userfiles/user_media/3995073565/v/d0a26e25c03ab9a5dfd9b907af7d767e.mob.nomob.mp4) has not been used for any stream. The most likely reason is either wrong type (e.g. a video option with no video streams) or that it is a private option of some encoder which was not actually used for any stream.
Stream mapping:
  Stream #0:0 -> #0:0 (h264 (native) -> h264 (libx264))
  Stream #0:1 -> #0:1 (aac (native) -> aac (native))
Press [q] to stop, [?] for help
[libx264 @ 0x7448700] Application has requested 32 threads. Using a thread count greater than 16 is not recommended.
[libx264 @ 0x7448700] using SAR=136/135
[libx264 @ 0x7448700] frame MB size (30x17) > level limit (396)
[libx264 @ 0x7448700] VBV bitrate (10000) > level limit (768)
[libx264 @ 0x7448700] VBV buffer (10000) > level limit (2000)
[libx264 @ 0x7448700] MB rate (12750) > level limit (11880)
[libx264 @ 0x7448700] using cpu capabilities: MMX2 SSE2Fast SSSE3 SSE4.2 AVX
[libx264 @ 0x7448700] profile Constrained Baseline, level 1.3, 4:2:0, 8-bit
[libx264 @ 0x7448700] 264 - core 161 r3040 35417dc - H.264/MPEG-4 AVC codec - Copyleft 2003-2021 - http://www.videolan.org/x264.html - options: cabac=0 ref=1 deblock=1:0:0 analyse=0x1:0 me=hex subme=1 psy=1 psy_rd=1.00:0.00 mixed_ref=0 me_range=16 chroma_me=1 trellis=0 8x8dct=0 cqm=0 deadzone=21,11 fast_pskip=1 chroma_qp_offset=0 threads=32 lookahead_threads=2 sliced_threads=0 nr=0 decimate=1 interlaced=0 bluray_compat=0 constrained_intra=0 bframes=0 weightp=0 keyint=300 keyint_min=25 scenecut=40 intra_refresh=0 rc_lookahead=30 rc=abr mbtree=1 bitrate=1000 ratetol=1.0 qcomp=0.60 qpmin=10 qpmax=51 qpstep=4 vbv_maxrate=10000 vbv_bufsize=10000 nal_hrd=none filler=0 ip_ratio=1.41 aq=1:1.00
Output #0, mp4, to '/home/yiaapc5/public_html/f_data/data_userfiles/user_media/3995073565/v/d0a26e25c03ab9a5dfd9b907af7d767e.mob.nomob.mp4':
  Metadata:
    major_brand     : mp42
    minor_version   : 0
    compatible_brands: isommp42
    encoder         : Lavf58.65.101
    Stream #0:0(und): Video: h264 (avc1 / 0x31637661), yuv420p(tv, bt709, progressive), 480x272 [SAR 136:135 DAR 16:9], q=2-31, 1000 kb/s, 25 fps, 12800 tbn (default)
    Metadata:
      creation_time   : 2021-02-07T00:10:56.000000Z
      handler_name    : ISO Media file produced by Google Inc. Created on: 02/06/2021.
      vendor_id       : [0][0][0][0]
      encoder         : Lavc58.119.100 libx264
    Side data:
      cpb: bitrate max/min/avg: 10000000/0/1000000 buffer size: 10000000 vbv_delay: N/A
    Stream #0:1(und): Audio: aac (LC) (mp4a / 0x6134706D), 44100 Hz, stereo, fltp, 128 kb/s (default)
    Metadata:
      creation_time   : 2021-02-07T00:10:56.000000Z
      handler_name    : ISO Media file produced by Google Inc. Created on: 02/06/2021.
      vendor_id       : [0][0][0][0]
      encoder         : Lavc58.119.100 aac
frame=    1 fps=0.0 q=0.0 size=       0kB time=00:00:00.41 bitrate=   0.9kbits/s speed=9.37x    frame=  181 fps=0.0 q=25.0 size=     768kB time=00:00:07.56 bitrate= 831.2kbits/s speed=13.9x    frame=  389 fps=371 q=23.0 size=    1792kB time=00:00:15.92 bitrate= 921.6kbits/s speed=15.2x    frame=  590 fps=381 q=22.0 size=    2816kB time=00:00:23.82 bitrate= 968.3kbits/s speed=15.4x    frame=  790 fps=386 q=22.0 size=    3840kB time=00:00:32.02 bitrate= 982.4kbits/s speed=15.6x    frame=  976 fps=383 q=23.0 size=    4864kB time=00:00:39.14 bitrate=1017.8kbits/s speed=15.4x    frame= 1174 fps=385 q=22.0 size=    5888kB time=00:00:47.22 bitrate=1021.3kbits/s speed=15.5x    frame= 1371 fps=386 q=24.0 size=    7424kB time=00:00:55.14 bitrate=1102.8kbits/s speed=15.5x    frame= 1572 fps=388 q=24.0 size=    8448kB time=00:01:03.29 bitrate=1093.3kbits/s speed=15.6x    frame= 1772 fps=389 q=24.0 size=    9472kB time=00:01:11.19 bitrate=1089.9kbits/s speed=15.6x    frame= 1973 fps=391 q=24.0 size=   10496kB time=00:01:19.08 bitrate=1087.2kbits/s speed=15.7x    frame= 2215 fps=399 q=24.0 size=   11776kB time=00:01:28.83 bitrate=1085.9kbits/s speed=  16x    frame= 2461 fps=407 q=24.0 size=   13056kB time=00:01:38.59 bitrate=1084.8kbits/s speed=16.3x    frame= 2704 fps=413 q=24.0 size=   14080kB time=00:01:48.34 bitrate=1064.6kbits/s speed=16.5x    frame= 2947 fps=418 q=24.0 size=   15104kB time=00:01:58.09 bitrate=1047.7kbits/s speed=16.7x    frame= 3194 fps=423 q=24.0 size=   16384kB time=00:02:07.84 bitrate=1049.8kbits/s speed=16.9x    frame= 3433 fps=426 q=23.0 size=   17408kB time=00:02:17.60 bitrate=1036.4kbits/s speed=17.1x    frame= 3648 fps=426 q=23.0 size=   18432kB time=00:02:26.09 bitrate=1033.5kbits/s speed=17.1x    frame= 3821 fps=422 q=23.0 size=   19456kB time=00:02:33.13 bitrate=1040.8kbits/s speed=16.9x    frame= 4040 fps=423 q=24.0 size=   20736kB time=00:02:41.75 bitrate=1050.2kbits/s speed=16.9x    frame= 4262 fps=424 q=25.0 size=   22016kB time=00:02:50.59 bitrate=1057.2kbits/s speed=  17x    frame= 4486 fps=425 q=25.0 size=   23296kB time=00:02:59.86 bitrate=1061.0kbits/s speed=  17x    frame= 4721 fps=427 q=26.0 size=   24576kB time=00:03:09.14 bitrate=1064.4kbits/s speed=17.1x    frame= 4956 fps=429 q=26.0 size=   25600kB time=00:03:18.43 bitrate=1056.8kbits/s speed=17.2x    frame= 5156 fps=427 q=26.0 size=   26624kB time=00:03:26.42 bitrate=1056.6kbits/s speed=17.1x    frame= 5226 fps=347 q=26.0 size=   27136kB time=00:03:29.11 bitrate=1063.0kbits/s speed=13.9x    frame= 5408 fps=348 q=25.0 size=   27904kB time=00:03:36.54 bitrate=1055.6kbits/s speed=13.9x    frame= 5589 fps=348 q=25.0 size=   28672kB time=00:03:43.97 bitrate=1048.7kbits/s speed=13.9x    frame= 5770 fps=348 q=25.0 size=   29696kB time=00:03:50.94 bitrate=1053.4kbits/s speed=13.9x    frame= 5946 fps=348 q=25.0 size=   30464kB time=00:03:58.16 bitrate=1047.8kbits/s speed=  14x    frame= 6128 fps=349 q=25.0 size=   31488kB time=00:04:05.34 bitrate=1051.4kbits/s speed=  14x    frame= 6306 fps=349 q=25.0 size=   32512kB time=00:04:12.77 bitrate=1053.7kbits/s speed=  14x    frame= 6488 fps=349 q=25.0 size=   33792kB time=00:04:19.73 bitrate=1065.8kbits/s speed=  14x    frame= 6665 fps=350 q=24.0 size=   34560kB time=00:04:26.70 bitrate=1061.5kbits/s speed=  14x    frame= 6839 fps=349 q=25.0 size=   35584kB time=00:04:33.67 bitrate=1065.2kbits/s speed=  14x    frame= 7016 fps=350 q=25.0 size=   36608kB time=00:04:41.10 bitrate=1066.9kbits/s speed=  14x    frame= 7196 fps=350 q=25.0 size=   37632kB time=00:04:48.06 bitrate=1070.2kbits/s speed=  14x    frame= 7378 fps=350 q=25.0 size=   38656kB time=00:04:55.49 bitrate=1071.7kbits/s speed=  14x    frame= 7556 fps=350 q=25.0 size=   39424kB time=00:05:02.46 bitrate=1067.8kbits/s speed=  14x    frame= 7734 fps=350 q=24.0 size=   40448kB time=00:05:09.61 bitrate=1070.2kbits/s speed=  14x    frame= 7914 fps=351 q=24.0 size=   41216kB time=00:05:16.85 bitrate=1065.6kbits/s speed=  14x    frame= 8047 fps=302 q=24.0 size=   41984kB time=00:05:21.96 bitrate=1068.2kbits/s speed=12.1x    frame= 8221 fps=303 q=24.0 size=   42752kB time=00:05:28.95 bitrate=1064.7kbits/s speed=12.1x    frame= 8397 fps=304 q=24.0 size=   43520kB time=00:05:35.99 bitrate=1061.1kbits/s speed=12.2x    frame= 8570 fps=305 q=23.0 size=   44544kB time=00:05:42.86 bitrate=1064.3kbits/s speed=12.2x    frame= 8741 fps=305 q=23.0 size=   45312kB time=00:05:49.83 bitrate=1061.1kbits/s speed=12.2x    frame= 8920 fps=306 q=23.0 size=   46336kB time=00:05:57.26 bitrate=1062.5kbits/s speed=12.3x    frame= 9097 fps=307 q=23.0 size=   47360kB time=00:06:04.22 bitrate=1065.2kbits/s speed=12.3x    frame= 9277 fps=308 q=23.0 size=   48384kB time=00:06:11.19 bitrate=1067.8kbits/s speed=12.3x    frame= 9453 fps=309 q=24.0 size=   49408kB time=00:06:18.25 bitrate=1070.1kbits/s speed=12.3x    frame= 9633 fps=309 q=24.0 size=   50432kB time=00:06:25.59 bitrate=1071.4kbits/s speed=12.4x    frame= 9813 fps=310 q=24.0 size=   51456kB time=00:06:32.57 bitrate=1073.7kbits/s speed=12.4x    frame= 9992 fps=311 q=24.0 size=   52480kB time=00:06:39.98 bitrate=1074.8kbits/s speed=12.4x    frame=10172 fps=312 q=24.0 size=   53504kB time=00:06:46.97 bitrate=1077.0kbits/s speed=12.5x    frame=10346 fps=312 q=24.0 size=   54528kB time=00:06:54.33 bitrate=1078.1kbits/s speed=12.5x    frame=10524 fps=313 q=25.0 size=   55808kB time=00:07:01.34 bitrate=1085.0kbits/s speed=12.5x    frame=10699 fps=313 q=26.0 size=   57344kB time=00:07:08.31 bitrate=1096.8kbits/s speed=12.5x    frame=10881 fps=314 q=26.0 size=   58624kB time=00:07:15.30 bitrate=1103.2kbits/s speed=12.6x    frame=11071 fps=315 q=26.0 size=   59648kB time=00:07:23.17 bitrate=1102.6kbits/s speed=12.6x    frame=11256 fps=316 q=26.0 size=   60672kB time=00:07:30.60 bitrate=1103.0kbits/s speed=12.6x    frame=11437 fps=316 q=26.0 size=   61696kB time=00:07:37.82 bitrate=1103.9kbits/s speed=12.7x    frame=11615 fps=317 q=26.0 size=   62720kB time=00:07:45.00 bitrate=1104.9kbits/s speed=12.7x    frame=11798 fps=318 q=26.0 size=   63744kB time=00:07:52.06 bitrate=1106.2kbits/s speed=12.7x    frame=11977 fps=318 q=26.0 size=   64768kB time=00:07:59.39 bitrate=1106.8kbits/s speed=12.7x    frame=12155 fps=319 q=26.0 size=   65792kB time=00:08:06.36 bitrate=1108.2kbits/s speed=12.7x    frame=12334 fps=319 q=26.0 size=   66560kB time=00:08:13.79 bitrate=1104.2kbits/s speed=12.8x    frame=12513 fps=320 q=26.0 size=   67584kB time=00:08:20.76 bitrate=1105.6kbits/s speed=12.8x    frame=12691 fps=320 q=26.0 size=   68608kB time=00:08:28.14 bitrate=1106.1kbits/s speed=12.8x    frame=12874 fps=321 q=26.0 size=   69632kB time=00:08:35.15 bitrate=1107.3kbits/s speed=12.8x    frame=13055 fps=321 q=26.0 size=   70656kB time=00:08:42.58 bitrate=1107.6kbits/s speed=12.9x    frame=13242 fps=322 q=26.0 size=   71680kB time=00:08:50.01 bitrate=1107.9kbits/s speed=12.9x    frame=13426 fps=322 q=26.0 size=   72960kB time=00:08:57.44 bitrate=1112.1kbits/s speed=12.9x    frame=13609 fps=323 q=26.0 size=   73728kB time=00:09:04.48 bitrate=1109.3kbits/s speed=12.9x    frame=13789 fps=323 q=26.0 size=   74752kB time=00:09:11.84 bitrate=1109.7kbits/s speed=12.9x    frame=13981 fps=324 q=26.0 size=   75776kB time=00:09:19.46 bitrate=1109.6kbits/s speed=  13x    frame=14159 fps=324 q=26.0 size=   76800kB time=00:09:26.70 bitrate=1110.2kbits/s speed=  13x    frame=14340 fps=325 q=26.0 size=   77824kB time=00:09:33.69 bitrate=1111.3kbits/s speed=  13x    frame=14525 fps=325 q=27.0 size=   78848kB time=00:09:41.10 bitrate=1111.5kbits/s speed=  13x    frame=14703 fps=326 q=27.0 size=   80128kB time=00:09:48.53 bitrate=1115.3kbits/s speed=  13x    frame=14884 fps=326 q=27.0 size=   81152kB time=00:09:55.49 bitrate=1116.4kbits/s speed=  13x    frame=15074 fps=327 q=28.0 size=   82688kB time=00:10:03.39 bitrate=1122.6kbits/s speed=13.1x    frame=15267 fps=327 q=28.0 size=   83968kB time=00:10:10.82 bitrate=1126.1kbits/s speed=13.1x    frame=15455 fps=328 q=28.0 size=   84992kB time=00:10:18.46 bitrate=1125.8kbits/s speed=13.1x    frame=15649 fps=328 q=28.0 size=   86272kB time=00:10:26.14 bitrate=1128.7kbits/s speed=13.1x    frame=15840 fps=329 q=28.0 size=   87296kB time=00:10:34.04 bitrate=1127.9kbits/s speed=13.2x    frame=16013 fps=329 q=28.0 size=   88320kB time=00:10:40.73 bitrate=1129.2kbits/s speed=13.2x    frame=16192 fps=329 q=29.0 size=   89600kB time=00:10:47.97 bitrate=1132.8kbits/s speed=13.2x    frame=16373 fps=330 q=29.0 size=   90624kB time=00:10:55.40 bitrate=1132.7kbits/s speed=13.2x    frame=16550 fps=330 q=29.0 size=   91648kB time=00:11:02.37 bitrate=1133.5kbits/s speed=13.2x    frame=16739 fps=330 q=29.0 size=   92416kB time=00:11:09.80 bitrate=1130.3kbits/s speed=13.2x    frame=16922 fps=331 q=29.0 size=   93696kB time=00:11:17.23 bitrate=1133.4kbits/s speed=13.2x    frame=17110 fps=331 q=29.0 size=   94720kB time=00:11:24.66 bitrate=1133.3kbits/s speed=13.3x    frame=17289 fps=331 q=29.0 size=   95744kB time=00:11:32.00 bitrate=1133.4kbits/s speed=13.3x    frame=17468 fps=332 q=29.0 size=   97024kB time=00:11:39.05 bitrate=1137.0kbits/s speed=13.3x    frame=17646 fps=332 q=29.0 size=   98048kB time=00:11:46.02 bitrate=1137.6kbits/s speed=13.3x    frame=17835 fps=332 q=29.0 size=   99072kB time=00:11:53.61 bitrate=1137.3kbits/s speed=13.3x    frame=18027 fps=333 q=29.0 size=  100096kB time=00:12:01.35 bitrate=1136.7kbits/s speed=13.3x    frame=18218 fps=333 q=29.0 size=  101376kB time=00:12:09.15 bitrate=1139.0kbits/s speed=13.3x    frame=18424 fps=334 q=29.0 size=  102400kB time=00:12:17.14 bitrate=1138.0kbits/s speed=13.4x    frame=18637 fps=335 q=29.0 size=  103168kB time=00:12:25.49 bitrate=1133.7kbits/s speed=13.4x    frame=18836 fps=335 q=29.0 size=  104448kB time=00:12:33.85 bitrate=1135.0kbits/s speed=13.4x    frame=19053 fps=336 q=29.0 size=  105728kB time=00:12:42.24 bitrate=1136.3kbits/s speed=13.4x    frame=19249 fps=337 q=29.0 size=  106752kB time=00:12:50.11 bitrate=1135.6kbits/s speed=13.5x    frame=19444 fps=337 q=29.0 size=  107776kB time=00:12:58.00 bitrate=1134.8kbits/s speed=13.5x    frame=19644 fps=338 q=29.0 size=  108800kB time=00:13:05.90 bitrate=1134.1kbits/s speed=13.5x    frame=19843 fps=338 q=29.0 size=  109824kB time=00:13:13.79 bitrate=1133.4kbits/s speed=13.5x    frame=20041 fps=339 q=29.0 size=  110592kB time=00:13:21.69 bitrate=1130.1kbits/s speed=13.5x    frame=20240 fps=339 q=29.0 size=  111616kB time=00:13:30.05 bitrate=1128.8kbits/s speed=13.6x    frame=20445 fps=340 q=29.0 size=  112640kB time=00:13:37.94 bitrate=1128.1kbits/s speed=13.6x    frame=20637 fps=340 q=29.0 size=  113920kB time=00:13:45.84 bitrate=1130.0kbits/s speed=13.6x    frame=20853 fps=341 q=29.0 size=  114944kB time=00:13:54.20 bitrate=1128.8kbits/s speed=13.6x    frame=21066 fps=341 q=29.0 size=  116224kB time=00:14:03.02 bitrate=1129.4kbits/s speed=13.7x    frame=21275 fps=342 q=29.0 size=  116992kB time=00:14:11.38 bitrate=1125.7kbits/s speed=13.7x    frame=21471 fps=342 q=29.0 size=  118016kB time=00:14:19.27 bitrate=1125.1kbits/s speed=13.7x    frame=21687 fps=343 q=29.0 size=  119296kB time=00:14:27.63 bitrate=1126.4kbits/s speed=13.7x    frame=21905 fps=344 q=29.0 size=  120576kB time=00:14:36.46 bitrate=1127.0kbits/s speed=13.8x    frame=22120 fps=345 q=29.0 size=  121856kB time=00:14:45.28 bitrate=1127.6kbits/s speed=13.8x    frame=22324 fps=345 q=29.0 size=  123136kB time=00:14:53.17 bitrate=1129.4kbits/s speed=13.8x    frame=22522 fps=345 q=29.0 size=  124160kB time=00:15:01.07 bitrate=1128.8kbits/s speed=13.8x    frame=22723 fps=346 q=29.0 size=  124928kB time=00:15:08.99 bitrate=1125.9kbits/s speed=13.8x    frame=22923 fps=346 q=29.0 size=  125952kB time=00:15:17.32 bitrate=1124.8kbits/s speed=13.9x    frame=23122 fps=347 q=29.0 size=  126976kB time=00:15:25.22 bitrate=1124.3kbits/s speed=13.9x    frame=23322 fps=347 q=29.0 size=  128256kB time=00:15:33.11 bitrate=1126.0kbits/s speed=13.9x    frame=23518 fps=347 q=29.0 size=  129280kB time=00:15:41.01 bitrate=1125.5kbits/s speed=13.9x    frame=23717 fps=348 q=28.0 size=  130048kB time=00:15:48.90 bitrate=1122.7kbits/s speed=13.9x    frame=23917 fps=348 q=28.0 size=  131072kB time=00:15:56.80 bitrate=1122.2kbits/s speed=13.9x    frame=24126 fps=349 q=29.0 size=  132352kB time=00:16:05.16 bitrate=1123.4kbits/s speed=13.9x    frame=24323 fps=349 q=29.0 size=  133632kB time=00:16:13.05 bitrate=1125.0kbits/s speed=  14x    frame=24519 fps=349 q=29.0 size=  134912kB time=00:16:20.95 bitrate=1126.7kbits/s speed=  14x    frame=24728 fps=350 q=29.0 size=  135936kB time=00:16:29.30 bitrate=1125.6kbits/s speed=  14x    frame=24937 fps=350 q=29.0 size=  136960kB time=00:16:37.66 bitrate=1124.6kbits/s speed=  14x    frame=25130 fps=350 q=29.0 size=  137984kB time=00:16:45.56 bitrate=1124.1kbits/s speed=  14x    frame=25326 fps=351 q=28.0 size=  138752kB time=00:16:53.45 bitrate=1121.6kbits/s speed=  14x    frame=25521 fps=351 q=28.0 size=  139776kB time=00:17:00.88 bitrate=1121.6kbits/s speed=  14x    frame=25712 fps=351 q=28.0 size=  140800kB time=00:17:08.78 bitrate=1121.2kbits/s speed=14.1x    frame=25906 fps=351 q=28.0 size=  141824kB time=00:17:16.67 bitrate=1120.7kbits/s speed=14.1x    frame=26100 fps=352 q=28.0 size=  142848kB time=00:17:24.38 bitrate=1120.5kbits/s speed=14.1x    frame=26296 fps=352 q=28.0 size=  143616kB time=00:17:32.00 bitrate=1118.3kbits/s speed=14.1x    frame=26489 fps=352 q=28.0 size=  144640kB time=00:17:39.89 bitrate=1117.9kbits/s speed=14.1x    frame=26682 fps=352 q=28.0 size=  145664kB time=00:17:47.32 bitrate=1118.0kbits/s speed=14.1x    frame=26894 fps=353 q=28.0 size=  146688kB time=00:17:56.15 bitrate=1116.6kbits/s speed=14.1x    frame=27111 fps=353 q=28.0 size=  147968kB time=00:18:04.51 bitrate=1117.7kbits/s speed=14.1x    frame=27325 fps=354 q=28.0 size=  148992kB time=00:18:13.33 bitrate=1116.3kbits/s speed=14.2x    frame=27540 fps=354 q=28.0 size=  150272kB time=00:18:21.92 bitrate=1117.2kbits/s speed=14.2x    frame=27758 fps=355 q=27.0 size=  151296kB time=00:18:30.51 bitrate=1116.1kbits/s speed=14.2x    frame=27972 fps=355 q=27.0 size=  152320kB time=00:18:39.34 bitrate=1114.8kbits/s speed=14.2x    frame=28188 fps=356 q=27.0 size=  153344kB time=00:18:47.70 bitrate=1113.9kbits/s speed=14.2x    frame=28402 fps=356 q=27.0 size=  154624kB time=00:18:56.52 bitrate=1114.5kbits/s speed=14.3x    frame=28614 fps=357 q=27.0 size=  155904kB time=00:19:04.88 bitrate=1115.5kbits/s speed=14.3x    frame=28814 fps=357 q=27.0 size=  156928kB time=00:19:12.77 bitrate=1115.2kbits/s speed=14.3x    frame=29006 fps=357 q=27.0 size=  157952kB time=00:19:20.67 bitrate=1114.8kbits/s speed=14.3x    frame=29211 fps=357 q=27.0 size=  158976kB time=00:19:28.56 bitrate=1114.5kbits/s speed=14.3x    frame=29425 fps=358 q=28.0 size=  160512kB time=00:19:37.39 bitrate=1116.8kbits/s speed=14.3x    frame=29642 fps=358 q=28.0 size=  162048kB time=00:19:45.75 bitrate=1119.5kbits/s speed=14.3x    frame=29840 fps=359 q=28.0 size=  163328kB time=00:19:53.97 bitrate=1120.6kbits/s speed=14.3x    frame=30026 fps=359 q=28.0 size=  164352kB time=00:20:01.28 bitrate=1120.8kbits/s speed=14.3x    frame=30233 fps=359 q=28.0 size=  165120kB time=00:20:09.43 bitrate=1118.4kbits/s speed=14.4x    frame=30431 fps=359 q=28.0 size=  165888kB time=00:20:17.32 bitrate=1116.3kbits/s speed=14.4x    frame=30636 fps=359 q=28.0 size=  167168kB time=00:20:25.68 bitrate=1117.3kbits/s speed=14.4x    frame=30837 fps=360 q=28.0 size=  168448kB time=00:20:33.88 bitrate=1118.4kbits/s speed=14.4x    frame=31033 fps=360 q=28.0 size=  169728kB time=00:20:41.47 bitrate=1120.0kbits/s speed=14.4x    frame=31231 fps=360 q=28.0 size=  170752kB time=00:20:49.37 bitrate=1119.6kbits/s speed=14.4x    frame=31437 fps=360 q=28.0 size=  171776kB time=00:20:57.73 bitrate=1118.8kbits/s speed=14.4x    frame=31648 fps=361 q=28.0 size=  173056kB time=00:21:06.09 bitrate=1119.7kbits/s speed=14.4x    frame=31845 fps=361 q=28.0 size=  173824kB time=00:21:13.98 bitrate=1117.7kbits/s speed=14.4x    frame=32047 fps=361 q=27.0 size=  174848kB time=00:21:22.34 bitrate=1117.0kbits/s speed=14.4x    frame=32263 fps=362 q=27.0 size=  175872kB time=00:21:30.70 bitrate=1116.2kbits/s speed=14.5x    frame=32466 fps=362 q=27.0 size=  176640kB time=00:21:39.06 bitrate=1113.9kbits/s speed=14.5x    frame=32683 fps=362 q=27.0 size=  177664kB time=00:21:47.51 bitrate=1113.1kbits/s speed=14.5x    frame=32900 fps=363 q=27.0 size=  178688kB time=00:21:56.24 bitrate=1112.1kbits/s speed=14.5x    frame=33114 fps=363 q=26.0 size=  179456kB time=00:22:05.04 bitrate=1109.5kbits/s speed=14.5x    frame=33332 fps=363 q=26.0 size=  180480kB time=00:22:13.42 bitrate=1108.8kbits/s speed=14.5x    frame=33545 fps=364 q=26.0 size=  181760kB time=00:22:22.25 bitrate=1109.3kbits/s speed=14.6x    frame=33761 fps=364 q=26.0 size=  182784kB time=00:22:30.61 bitrate=1108.7kbits/s speed=14.6x    frame=33973 fps=364 q=26.0 size=  183808kB time=00:22:39.43 bitrate=1107.6kbits/s speed=14.6x    frame=34191 fps=365 q=25.0 size=  184576kB time=00:22:47.79 bitrate=1105.5kbits/s speed=14.6x    frame=34389 fps=365 q=25.0 size=  185600kB time=00:22:55.68 bitrate=1105.2kbits/s speed=14.6x    frame=34577 fps=365 q=25.0 size=  186624kB time=00:23:03.37 bitrate=1105.1kbits/s speed=14.6x    frame=34764 fps=365 q=25.0 size=  187648kB time=00:23:11.01 bitrate=1105.1kbits/s speed=14.6x    frame=34971 fps=365 q=26.0 size=  189184kB time=00:23:19.23 bitrate=1107.6kbits/s speed=14.6x    frame=35187 fps=366 q=25.0 size=  190208kB time=00:23:27.73 bitrate=1106.9kbits/s speed=14.6x    frame=35401 fps=366 q=25.0 size=  190720kB time=00:23:36.51 bitrate=1103.0kbits/s speed=14.6x    frame=35621 fps=366 q=24.0 size=  191488kB time=00:23:44.91 bitrate=1100.9kbits/s speed=14.7x    frame=35833 fps=367 q=24.0 size=  192256kB time=00:23:53.73 bitrate=1098.5kbits/s speed=14.7x    frame=36050 fps=367 q=23.0 size=  193024kB time=00:24:02.12 bitrate=1096.5kbits/s speed=14.7x    frame=36267 fps=367 q=23.0 size=  194304kB time=00:24:10.92 bitrate=1097.1kbits/s speed=14.7x    frame=36481 fps=368 q=23.0 size=  195840kB time=00:24:19.65 bitrate=1099.1kbits/s speed=14.7x    frame=36700 fps=368 q=24.0 size=  197120kB time=00:24:28.10 bitrate=1099.9kbits/s speed=14.7x    frame=36913 fps=368 q=24.0 size=  198400kB time=00:24:36.92 bitrate=1100.5kbits/s speed=14.7x    frame=37130 fps=369 q=24.0 size=  199936kB time=00:24:45.31 bitrate=1102.7kbits/s speed=14.7x    frame=37331 fps=369 q=25.0 size=  201216kB time=00:24:53.64 bitrate=1103.6kbits/s speed=14.8x    frame=37531 fps=369 q=25.0 size=  202752kB time=00:25:01.54 bitrate=1106.2kbits/s speed=14.8x    frame=37732 fps=369 q=25.0 size=  204032kB time=00:25:09.43 bitrate=1107.3kbits/s speed=14.8x    frame=37927 fps=369 q=25.0 size=  205312kB time=00:25:17.33 bitrate=1108.5kbits/s speed=14.8x    frame=38127 fps=369 q=25.0 size=  206336kB time=00:25:25.22 bitrate=1108.2kbits/s speed=14.8x    frame=38321 fps=369 q=26.0 size=  207616kB time=00:25:33.12 bitrate=1109.4kbits/s speed=14.8x    frame=38524 fps=369 q=26.0 size=  209152kB time=00:25:41.47 bitrate=1111.5kbits/s speed=14.8x    frame=38741 fps=370 q=26.0 size=  210688kB time=00:25:49.83 bitrate=1113.6kbits/s speed=14.8x    frame=38947 fps=370 q=27.0 size=  212224kB time=00:25:58.19 bitrate=1115.7kbits/s speed=14.8x    frame=39137 fps=370 q=27.0 size=  213248kB time=00:26:05.62 bitrate=1115.8kbits/s speed=14.8x    frame=39345 fps=370 q=27.0 size=  214528kB time=00:26:13.98 bitrate=1116.5kbits/s speed=14.8x    frame=39557 fps=370 q=27.0 size=  215552kB time=00:26:22.37 bitrate=1115.9kbits/s speed=14.8x    frame=39763 fps=371 q=27.0 size=  216832kB time=00:26:30.70 bitrate=1116.7kbits/s speed=14.8x    frame=39961 fps=371 q=27.0 size=  217856kB time=00:26:38.60 bitrate=1116.4kbits/s speed=14.8x    frame=40160 fps=371 q=26.0 size=  218880kB time=00:26:46.49 bitrate=1116.1kbits/s speed=14.8x    frame=40338 fps=371 q=26.0 size=  219648kB time=00:26:53.92 bitrate=1114.9kbits/s speed=14.8x    frame=40528 fps=371 q=26.0 size=  220672kB time=00:27:01.35 bitrate=1115.0kbits/s speed=14.8x    frame=40708 fps=371 q=26.0 size=  221696kB time=00:27:08.78 bitrate=1115.0kbits/s speed=14.8x    frame=40892 fps=371 q=27.0 size=  222720kB time=00:27:15.75 bitrate=1115.4kbits/s speed=14.8x    frame=41077 fps=371 q=26.0 size=  223744kB time=00:27:23.18 bitrate=1115.5kbits/s speed=14.8x    frame=41263 fps=371 q=27.0 size=  225024kB time=00:27:30.98 bitrate=1116.5kbits/s speed=14.8x    frame=41460 fps=371 q=26.0 size=  226048kB time=00:27:38.85 bitrate=1116.3kbits/s speed=14.8x    frame=41656 fps=371 q=27.0 size=  227072kB time=00:27:46.40 bitrate=1116.3kbits/s speed=14.8x    frame=41833 fps=371 q=27.0 size=  228096kB time=00:27:53.39 bitrate=1116.6kbits/s speed=14.8x    frame=42021 fps=371 q=27.0 size=  229376kB time=00:28:01.26 bitrate=1117.6kbits/s speed=14.8x    frame=42217 fps=371 q=27.0 size=  230144kB time=00:28:09.15 bitrate=1116.1kbits/s speed=14.8x    frame=42420 fps=371 q=27.0 size=  231424kB time=00:28:17.05 bitrate=1117.1kbits/s speed=14.8x    frame=42602 fps=371 q=27.0 size=  232448kB time=00:28:24.48 bitrate=1117.2kbits/s speed=14.8x    frame=42782 fps=371 q=27.0 size=  233728kB time=00:28:31.44 bitrate=1118.8kbits/s speed=14.8x    frame=42962 fps=371 q=27.0 size=  235008kB time=00:28:38.88 bitrate=1120.0kbits/s speed=14.8x    frame=43146 fps=371 q=27.0 size=  236032kB time=00:28:46.31 bitrate=1120.1kbits/s speed=14.8x    frame=43330 fps=371 q=27.0 size=  237312kB time=00:28:53.57 bitrate=1121.4kbits/s speed=14.8x    frame=43508 fps=371 q=28.0 size=  238592kB time=00:29:00.70 bitrate=1122.8kbits/s speed=14.8x    frame=43690 fps=371 q=28.0 size=  239872kB time=00:29:07.69 bitrate=1124.4kbits/s speed=14.8x    frame=43871 fps=371 q=28.0 size=  240896kB time=00:29:15.10 bitrate=1124.4kbits/s speed=14.8x    frame=44050 fps=371 q=28.0 size=  242176kB time=00:29:22.13 bitrate=1125.9kbits/s speed=14.8x    frame=44232 fps=371 q=28.0 size=  243200kB time=00:29:29.49 bitrate=1125.9kbits/s speed=14.8x    frame=44422 fps=371 q=28.0 size=  244480kB time=00:29:37.23 bitrate=1126.9kbits/s speed=14.8x    frame=44608 fps=371 q=28.0 size=  245504kB time=00:29:44.66 bitrate=1126.9kbits/s speed=14.8x    frame=44795 fps=371 q=28.0 size=  246784kB time=00:29:52.25 bitrate=1128.0kbits/s speed=14.8x    frame=44981 fps=371 q=28.0 size=  247808kB time=00:29:59.68 bitrate=1128.0kbits/s speed=14.8x    frame=45165 fps=371 q=28.0 size=  248832kB time=00:30:06.69 bitrate=1128.3kbits/s speed=14.8x    frame=45348 fps=371 q=29.0 size=  249856kB time=00:30:14.08 bitrate=1128.3kbits/s speed=14.8x    frame=45536 fps=371 q=29.0 size=  250880kB time=00:30:21.72 bitrate=1128.2kbits/s speed=14.8x    frame=45724 fps=371 q=29.0 size=  251904kB time=00:30:29.40 bitrate=1128.0kbits/s speed=14.8x    frame=45917 fps=371 q=29.0 size=  253184kB time=00:30:36.83 bitrate=1129.2kbits/s speed=14.8x    frame=46107 fps=371 q=29.0 size=  254208kB time=00:30:44.73 bitrate=1128.9kbits/s speed=14.8x    frame=46296 fps=371 q=29.0 size=  255232kB time=00:30:52.16 bitrate=1128.9kbits/s speed=14.8x    frame=46479 fps=371 q=29.0 size=  256512kB time=00:30:59.59 bitrate=1130.0kbits/s speed=14.8x    frame=46669 fps=371 q=29.0 size=  257792kB time=00:31:07.02 bitrate=1131.1kbits/s speed=14.8x    frame=46858 fps=371 q=29.0 size=  258816kB time=00:31:14.45 bitrate=1131.1kbits/s speed=14.8x    frame=47046 fps=371 q=29.0 size=  259840kB time=00:31:22.32 bitrate=1130.8kbits/s speed=14.8x    frame=47162 fps=370 q=29.0 size=  260352kB time=00:31:26.52 bitrate=1130.5kbits/s speed=14.8x    frame=47348 fps=370 q=29.0 size=  261376kB time=00:31:34.42 bitrate=1130.3kbits/s speed=14.8x    frame=47540 fps=371 q=29.0 size=  262400kB time=00:31:41.85 bitrate=1130.3kbits/s speed=14.8x    frame=47729 fps=371 q=29.0 size=  263424kB time=00:31:49.28 bitrate=1130.3kbits/s speed=14.8x    frame=47916 fps=371 q=29.0 size=  264448kB time=00:31:56.71 bitrate=1130.2kbits/s speed=14.8x    frame=48100 fps=371 q=29.0 size=  265728kB time=00:32:04.14 bitrate=1131.3kbits/s speed=14.8x    frame=48288 fps=371 q=29.0 size=  266752kB time=00:32:11.71 bitrate=1131.2kbits/s speed=14.8x    frame=48476 fps=371 q=29.0 size=  267264kB time=00:32:19.46 bitrate=1128.9kbits/s speed=14.8x    frame=48663 fps=371 q=29.0 size=  268288kB time=00:32:26.90 bitrate=1128.9kbits/s speed=14.8x    frame=48850 fps=371 q=29.0 size=  269312kB time=00:32:34.33 bitrate=1128.9kbits/s speed=14.8x    frame=49045 fps=371 q=29.0 size=  270592kB time=00:32:42.22 bitrate=1129.7kbits/s speed=14.8x    frame=49241 fps=371 q=29.0 size=  271360kB time=00:32:50.12 bitrate=1128.3kbits/s speed=14.8x    frame=49437 fps=371 q=29.0 size=  272384kB time=00:32:57.59 bitrate=1128.3kbits/s speed=14.8x    frame=49634 fps=371 q=29.0 size=  273408kB time=00:33:05.44 bitrate=1128.1kbits/s speed=14.8x    frame=49833 fps=371 q=29.0 size=  274688kB time=00:33:13.36 bitrate=1128.9kbits/s speed=14.8x    frame=50030 fps=371 q=29.0 size=  275712kB time=00:33:21.69 bitrate=1128.4kbits/s speed=14.8x    frame=50227 fps=371 q=29.0 size=  276736kB time=00:33:29.12 bitrate=1128.4kbits/s speed=14.8x    frame=50413 fps=371 q=29.0 size=  277760kB time=00:33:36.76 bitrate=1128.2kbits/s speed=14.8x    frame=50593 fps=371 q=29.0 size=  278784kB time=00:33:43.99 bitrate=1128.4kbits/s speed=14.8x    frame=50785 fps=371 q=29.0 size=  279552kB time=00:33:51.72 bitrate=1127.2kbits/s speed=14.9x    frame=50989 fps=371 q=28.0 size=  280576kB time=00:33:59.78 bitrate=1126.8kbits/s speed=14.9x    frame=51191 fps=371 q=28.0 size=  281600kB time=00:34:07.69 bitrate=1126.6kbits/s speed=14.9x    frame=51392 fps=372 q=29.0 size=  282880kB time=00:34:16.03 bitrate=1127.1kbits/s speed=14.9x    frame=51595 fps=372 q=29.0 size=  283904kB time=00:34:23.92 bitrate=1126.9kbits/s speed=14.9x    frame=51789 fps=372 q=29.0 size=  285184kB time=00:34:31.82 bitrate=1127.6kbits/s speed=14.9x    frame=51990 fps=372 q=29.0 size=  286208kB time=00:34:40.04 bitrate=1127.2kbits/s speed=14.9x    frame=52199 fps=372 q=29.0 size=  287232kB time=00:34:48.07 bitrate=1126.9kbits/s speed=14.9x    frame=52404 fps=372 q=29.0 size=  288512kB time=00:34:56.43 bitrate=1127.4kbits/s speed=14.9x    frame=52607 fps=372 q=29.0 size=  289792kB time=00:35:04.70 bitrate=1127.9kbits/s speed=14.9x    frame=52819 fps=372 q=29.0 size=  291072kB time=00:35:13.15 bitrate=1128.4kbits/s speed=14.9x    frame=53030 fps=373 q=29.0 size=  292352kB time=00:35:21.51 bitrate=1128.9kbits/s speed=14.9x    frame=53245 fps=373 q=29.0 size=  293632kB time=00:35:30.01 bitrate=1129.3kbits/s speed=14.9x    frame=53459 fps=373 q=29.0 size=  294912kB time=00:35:38.69 bitrate=1129.6kbits/s speed=14.9x    frame=53675 fps=373 q=29.0 size=  295936kB time=00:35:47.21 bitrate=1129.0kbits/s speed=14.9x    frame=53884 fps=373 q=29.0 size=  297216kB time=00:35:55.43 bitrate=1129.6kbits/s speed=14.9x    frame=54082 fps=373 q=26.0 size=  298240kB time=00:36:03.31 bitrate=1129.4kbits/s speed=14.9x    frame=54279 fps=373 q=29.0 size=  299264kB time=00:36:11.22 bitrate=1129.1kbits/s speed=14.9x    frame=54488 fps=374 q=29.0 size=  300544kB time=00:36:19.95 bitrate=1129.4kbits/s speed=14.9x    frame=54703 fps=374 q=29.0 size=  301824kB time=00:36:28.38 bitrate=1129.8kbits/s speed=  15x    frame=54913 fps=374 q=29.0 size=  302848kB time=00:36:36.74 bitrate=1129.4kbits/s speed=  15x    frame=55126 fps=374 q=29.0 size=  304128kB time=00:36:45.12 bitrate=1129.8kbits/s speed=  15x    frame=55336 fps=374 q=29.0 size=  305408kB time=00:36:53.83 bitrate=1130.1kbits/s speed=  15x    frame=55545 fps=374 q=29.0 size=  306688kB time=00:37:02.17 bitrate=1130.6kbits/s speed=  15x    frame=55752 fps=375 q=29.0 size=  307712kB time=00:37:10.57 bitrate=1130.1kbits/s speed=  15x    frame=55964 fps=375 q=29.0 size=  308992kB time=00:37:19.00 bitrate=1130.5kbits/s speed=  15x    frame=56177 fps=375 q=29.0 size=  310016kB time=00:37:27.36 bitrate=1130.1kbits/s speed=  15x    frame=56388 fps=375 q=29.0 size=  311296kB time=00:37:35.72 bitrate=1130.5kbits/s speed=  15x    frame=56600 fps=375 q=29.0 size=  312576kB time=00:37:44.08 bitrate=1131.0kbits/s speed=  15x    frame=56814 fps=375 q=29.0 size=  313856kB time=00:37:52.90 bitrate=1131.2kbits/s speed=  15x    frame=57029 fps=376 q=29.0 size=  315136kB time=00:38:01.26 bitrate=1131.6kbits/s speed=  15x    frame=57239 fps=376 q=29.0 size=  316160kB time=00:38:09.81 bitrate=1131.1kbits/s speed=  15x    frame=57456 fps=376 q=29.0 size=  317440kB time=00:38:18.45 bitrate=1131.4kbits/s speed=  15x    frame=57669 fps=376 q=29.0 size=  318464kB time=00:38:27.27 bitrate=1130.7kbits/s speed=  15x    frame=57879 fps=376 q=29.0 size=  319488kB time=00:38:35.63 bitrate=1130.3kbits/s speed=15.1x    frame=58082 fps=376 q=29.0 size=  320256kB time=00:38:43.52 bitrate=1129.1kbits/s speed=15.1x    frame=58292 fps=376 q=29.0 size=  321024kB time=00:38:51.88 bitrate=1127.8kbits/s speed=15.1x    frame=58504 fps=377 q=29.0 size=  322304kB time=00:39:00.26 bitrate=1128.2kbits/s speed=15.1x    frame=58719 fps=377 q=29.0 size=  323840kB time=00:39:09.06 bitrate=1129.3kbits/s speed=15.1x    frame=58934 fps=377 q=29.0 size=  325120kB time=00:39:17.52 bitrate=1129.7kbits/s speed=15.1x    frame=59139 fps=377 q=29.0 size=  326400kB time=00:39:25.78 bitrate=1130.2kbits/s speed=15.1x    frame=59337 fps=377 q=29.0 size=  327680kB time=00:39:33.68 bitrate=1130.9kbits/s speed=15.1x    frame=59527 fps=377 q=29.0 size=  328960kB time=00:39:41.57 bitrate=1131.5kbits/s speed=15.1x    frame=59726 fps=377 q=30.0 size=  329984kB time=00:39:49.47 bitrate=1131.3kbits/s speed=15.1x    frame=59927 fps=377 q=30.0 size=  331264kB time=00:39:57.36 bitrate=1132.0kbits/s speed=15.1x    frame=60121 fps=377 q=30.0 size=  332288kB time=00:40:05.26 bitrate=1131.7kbits/s speed=15.1x    frame=60326 fps=377 q=29.0 size=  333312kB time=00:40:13.15 bitrate=1131.5kbits/s speed=15.1x    frame=60525 fps=377 q=29.0 size=  334080kB time=00:40:21.19 bitrate=1130.3kbits/s speed=15.1x    frame=60713 fps=377 q=29.0 size=  334848kB time=00:40:28.94 bitrate=1129.3kbits/s speed=15.1x    frame=60920 fps=378 q=29.0 size=  335616kB time=00:40:36.88 bitrate=1128.2kbits/s speed=15.1x    frame=61131 fps=378 q=29.0 size=  336384kB time=00:40:45.66 bitrate=1126.8kbits/s speed=15.1x    frame=61338 fps=378 q=29.0 size=  337920kB time=00:40:53.55 bitrate=1128.3kbits/s speed=15.1x    frame=61533 fps=378 q=29.0 size=  339200kB time=00:41:01.45 bitrate=1128.9kbits/s speed=15.1x    frame=61736 fps=378 q=29.0 size=  340736kB time=00:41:09.81 bitrate=1130.2kbits/s speed=15.1x    frame=61951 fps=378 q=29.0 size=  342016kB time=00:41:18.17 bitrate=1130.6kbits/s speed=15.1x    frame=62162 fps=378 q=30.0 size=  343296kB time=00:41:26.85 bitrate=1130.9kbits/s speed=15.1x    frame=62373 fps=378 q=30.0 size=  344576kB time=00:41:35.35 bitrate=1131.2kbits/s speed=15.1x    frame=62588 fps=379 q=30.0 size=  345856kB time=00:41:43.71 bitrate=1131.6kbits/s speed=15.1x    frame=62798 fps=379 q=30.0 size=  347136kB time=00:41:52.07 bitrate=1132.0kbits/s speed=15.1x    frame=63009 fps=379 q=30.0 size=  348416kB time=00:42:00.43 bitrate=1132.4kbits/s speed=15.2x    frame=63218 fps=379 q=30.0 size=  349440kB time=00:42:08.81 bitrate=1132.0kbits/s speed=15.2x    frame=63424 fps=379 q=30.0 size=  350464kB time=00:42:17.15 bitrate=1131.6kbits/s speed=15.2x    frame=63624 fps=379 q=30.0 size=  351488kB time=00:42:25.46 bitrate=1131.2kbits/s speed=15.2x    frame=63822 fps=379 q=30.0 size=  352768kB time=00:42:33.35 bitrate=1131.8kbits/s speed=15.2x    frame=64018 fps=379 q=30.0 size=  354048kB time=00:42:40.83 bitrate=1132.6kbits/s speed=15.2x    frame=64210 fps=379 q=30.0 size=  355072kB time=00:42:48.73 bitrate=1132.4kbits/s speed=15.2x    frame=64403 fps=379 q=30.0 size=  356352kB time=00:42:56.41 bitrate=1133.1kbits/s speed=15.2x    frame=64600 fps=379 q=30.0 size=  357376kB time=00:43:04.10 bitrate=1132.9kbits/s speed=15.2x    frame=64797 fps=379 q=30.0 size=  358656kB time=00:43:12.15 bitrate=1133.5kbits/s speed=15.2x    frame=64995 fps=379 q=30.0 size=  359936kB time=00:43:20.28 bitrate=1134.0kbits/s speed=15.2x    frame=65193 fps=379 q=30.0 size=  361216kB time=00:43:28.20 bitrate=1134.5kbits/s speed=15.2x    frame=65390 fps=379 q=30.0 size=  362496kB time=00:43:35.98 bitrate=1135.2kbits/s speed=15.2x    frame=65590 fps=379 q=30.0 size=  363776kB time=00:43:43.99 bitrate=1135.7kbits/s speed=15.2x    frame=65785 fps=379 q=30.0 size=  364544kB time=00:43:51.86 bitrate=1134.7kbits/s speed=15.2x    frame=65986 fps=380 q=30.0 size=  365312kB time=00:43:59.78 bitrate=1133.7kbits/s speed=15.2x    frame=66188 fps=380 q=30.0 size=  366080kB time=00:44:07.67 bitrate=1132.7kbits/s speed=15.2x    frame=66386 fps=380 q=30.0 size=  366592kB time=00:44:15.57 bitrate=1130.9kbits/s speed=15.2x    frame=66577 fps=380 q=29.0 size=  367104kB time=00:44:23.46 bitrate=1129.1kbits/s speed=15.2x    frame=66770 fps=380 q=29.0 size=  367872kB time=00:44:30.92 bitrate=1128.3kbits/s speed=15.2x    frame=66952 fps=380 q=29.0 size=  368384kB time=00:44:38.32 bitrate=1126.7kbits/s speed=15.2x    frame=67165 fps=380 q=29.0 size=  369664kB time=00:44:46.71 bitrate=1127.1kbits/s speed=15.2x    frame=67380 fps=380 q=29.0 size=  370688kB time=00:44:55.51 bitrate=1126.6kbits/s speed=15.2x    frame=67593 fps=380 q=29.0 size=  371712kB time=00:45:03.87 bitrate=1126.2kbits/s speed=15.2x    frame=67805 fps=380 q=29.0 size=  372736kB time=00:45:12.57 bitrate=1125.7kbits/s speed=15.2x    frame=68013 fps=380 q=29.0 size=  374016kB time=00:45:20.58 bitrate=1126.2kbits/s speed=15.2x    frame=68215 fps=380 q=29.0 size=  375040kB time=00:45:28.94 bitrate=1125.8kbits/s speed=15.2x    frame=68427 fps=380 q=28.0 size=  376064kB time=00:45:37.30 bitrate=1125.5kbits/s speed=15.2x    frame=68633 fps=380 q=28.0 size=  376832kB time=00:45:45.66 bitrate=1124.3kbits/s speed=15.2x    frame=68832 fps=381 q=28.0 size=  377856kB time=00:45:53.56 bitrate=1124.1kbits/s speed=15.2x    frame=69041 fps=381 q=28.0 size=  379136kB time=00:46:01.92 bitrate=1124.5kbits/s speed=15.2x    frame=69255 fps=381 q=29.0 size=  380672kB time=00:46:10.27 bitrate=1125.7kbits/s speed=15.2x    frame=69464 fps=381 q=29.0 size=  381952kB time=00:46:18.96 bitrate=1125.9kbits/s speed=15.2x    frame=69678 fps=381 q=29.0 size=  383232kB time=00:46:27.46 bitrate=1126.3kbits/s speed=15.2x    frame=69892 fps=381 q=29.0 size=  384512kB time=00:46:35.82 bitrate=1126.7kbits/s speed=15.2x    frame=70103 fps=381 q=29.0 size=  385792kB time=00:46:44.25 bitrate=1127.0kbits/s speed=15.3x    frame=70318 fps=381 q=29.0 size=  387072kB time=00:46:53.00 bitrate=1127.2kbits/s speed=15.3x    frame=70532 fps=381 q=29.0 size=  388096kB time=00:47:01.38 bitrate=1126.9kbits/s speed=15.3x    frame=70732 fps=382 q=29.0 size=  389120kB time=00:47:09.72 bitrate=1126.5kbits/s speed=15.3x    frame=70950 fps=382 q=29.0 size=  390144kB time=00:47:18.10 bitrate=1126.1kbits/s speed=15.3x    frame=71160 fps=382 q=29.0 size=  391680kB time=00:47:26.81 bitrate=1127.1kbits/s speed=15.3x    frame=71367 fps=382 q=29.0 size=  392960kB time=00:47:34.80 bitrate=1127.6kbits/s speed=15.3x    frame=71578 fps=382 q=29.0 size=  394496kB time=00:47:43.55 bitrate=1128.6kbits/s speed=15.3x    frame=71752 fps=382 q=29.0 size=  395008kB time=00:47:50.14 bitrate=1127.4kbits/s speed=15.3x    frame=71958 fps=382 q=29.0 size=  396544kB time=00:47:58.48 bitrate=1128.5kbits/s speed=15.3x    frame=72166 fps=382 q=29.0 size=  397568kB time=00:48:06.84 bitrate=1128.2kbits/s speed=15.3x    frame=72372 fps=382 q=29.0 size=  398336kB time=00:48:15.20 bitrate=1127.1kbits/s speed=15.3x    frame=72580 fps=382 q=29.0 size=  399360kB time=00:48:23.56 bitrate=1126.7kbits/s speed=15.3x    frame=72787 fps=382 q=29.0 size=  400128kB time=00:48:31.92 bitrate=1125.7kbits/s speed=15.3x    frame=72994 fps=382 q=29.0 size=  401152kB time=00:48:40.21 bitrate=1125.3kbits/s speed=15.3x    frame=73203 fps=382 q=28.0 size=  402176kB time=00:48:48.57 bitrate=1125.0kbits/s speed=15.3x    frame=73412 fps=383 q=28.0 size=  403200kB time=00:48:56.95 bitrate=1124.6kbits/s speed=15.3x    frame=73613 fps=383 q=28.0 size=  404480kB time=00:49:04.89 bitrate=1125.2kbits/s speed=15.3x    frame=73823 fps=383 q=28.0 size=  405504kB time=00:49:13.25 bitrate=1124.8kbits/s speed=15.3x    frame=74030 fps=383 q=28.0 size=  406272kB time=00:49:21.61 bitrate=1123.8kbits/s speed=15.3x    frame=74240 fps=383 q=28.0 size=  407040kB time=00:49:29.97 bitrate=1122.7kbits/s speed=15.3x    frame=74445 fps=383 q=28.0 size=  407808kB time=00:49:38.12 bitrate=1121.8kbits/s speed=15.3x    frame=74655 fps=383 q=28.0 size=  409088kB time=00:49:46.24 bitrate=1122.2kbits/s speed=15.3x    frame=74799 fps=383 q=-1.0 Lsize=  411776kB time=00:49:51.93 bitrate=1127.5kbits/s speed=15.3x    
video:364922kB audio:44986kB subtitle:0kB other streams:0kB global headers:0kB muxing overhead: 0.455856%
[libx264 @ 0x7448700] frame I:254   Avg QP:21.71  size: 29964
[libx264 @ 0x7448700] frame P:74545 Avg QP:24.83  size:  4911
[libx264 @ 0x7448700] mb I  I16..4:  5.4%  0.0% 94.6%
[libx264 @ 0x7448700] mb P  I16..4:  1.7%  0.0%  0.0%  P16..4: 74.1%  0.0%  0.0%  0.0%  0.0%    skip:24.2%
[libx264 @ 0x7448700] final ratefactor: 22.22
[libx264 @ 0x7448700] coded y,uvDC,uvAC intra: 57.8% 48.5% 24.5% inter: 39.4% 13.7% 2.4%
[libx264 @ 0x7448700] i16 v,h,dc,p: 29% 52% 13%  6%
[libx264 @ 0x7448700] i4 v,h,dc,ddl,ddr,vr,hd,vl,hu: 23% 30%  8%  5%  6%  6%  7%  5%  8%
[libx264 @ 0x7448700] i8c dc,h,v,p: 31% 43% 19%  8%
[libx264 @ 0x7448700] kb/s:999.16
[aac @ 0x748d280] Qavg: 3022.432
